<svg width="100%" height="100%" viewBox="0 0 1024 1024" xmlns="http://www.w3.org/2000/svg">
  <style>
    path { fill: #2563eb; }
  </style>
  <g transform="translate(200, 260) scale(0.6)">
    <path d="
M840.977295,344.000000 
	C840.958618,402.657501 840.938049,460.814972 840.932312,518.972473 
	C840.932007,521.970459 840.980957,524.972656 841.143921,527.965393 
	C841.352112,531.785889 842.874451,534.787109 846.918213,535.729431 
	C849.523254,536.336487 850.338379,537.889526 850.290405,540.426575 
	C850.173889,546.590210 850.231873,552.757080 850.211487,558.922607 
	C850.205200,560.807068 850.007629,562.436829 847.891907,563.418091 
	C837.200378,568.376709 821.017395,562.930420 815.554565,552.513733 
	C813.170410,547.967407 813.903687,543.099854 813.703918,538.307251 
	C813.651794,537.056213 814.150818,535.655457 812.781372,534.192139 
	C806.755188,542.323730 799.869629,549.467834 791.250977,554.686768 
	C763.671753,571.387207 735.684753,570.990601 708.463989,554.695251 
	C684.071838,540.093201 671.212036,517.288818 667.299316,489.404968 
	C663.125183,459.658356 669.856140,432.662506 689.634155,409.780487 
	C712.303101,383.553772 748.832520,376.317169 778.602966,391.723175 
	C788.872437,397.037567 797.827087,404.261200 804.968872,413.521484 
	C806.069641,414.948853 807.232300,416.328552 808.592163,418.009369 
	C810.341492,416.032410 809.678223,413.987885 809.680847,412.181213 
	C809.723816,382.685944 809.701660,353.190582 809.703796,323.695221 
	C809.704285,317.170868 809.925049,316.995239 816.467590,317.006134 
	C822.966370,317.016998 829.466797,317.048126 835.963440,316.916046 
	C839.583252,316.842468 841.120544,318.432495 841.070923,322.004364 
	C840.971497,329.168640 841.001709,336.334686 840.977295,344.000000 
M809.739563,462.523315 
	C811.228821,452.188599 807.227905,443.622437 800.898804,435.939911 
	C797.086548,431.312378 792.733398,427.177643 787.957947,423.507202 
	C764.243225,405.280304 735.661499,407.462708 715.667786,429.047913 
	C693.342163,453.150574 692.470337,494.102722 714.003845,518.887817 
	C727.336548,534.233704 744.115295,541.786621 764.608704,538.747131 
	C776.749451,536.946533 787.266418,531.051819 796.225464,522.781372 
	C805.555359,514.168518 810.833008,503.761963 809.878174,490.479645 
	C809.235107,481.534698 809.745911,472.506836 809.739563,462.523315 
z"/>
    <path d="
M529.431580,534.607056 
	C552.898499,548.753296 584.459717,543.956970 601.726929,523.842773 
	C602.483704,522.961304 603.205261,522.039368 603.851868,521.075012 
	C608.883545,513.571228 608.873901,513.575867 617.394287,516.044434 
	C621.551331,517.248840 625.667786,518.676025 629.898804,519.520081 
	C634.471008,520.432190 634.756836,522.528992 632.732483,526.162231 
	C624.827576,540.349792 613.308289,550.987427 598.708618,557.431396 
	C564.728577,572.429443 531.776672,570.753479 501.617828,547.728821 
	C482.916107,533.451111 472.432098,513.788269 468.929749,490.605835 
	C465.003815,464.619812 469.773499,440.389313 485.791656,419.185699 
	C501.470764,398.430847 522.675415,387.239929 548.581665,384.585938 
	C575.933594,381.783844 599.777222,389.506470 619.407532,408.603760 
	C639.904663,428.544342 647.621948,453.539429 645.965881,481.747650 
	C645.739929,485.595215 643.440491,486.177826 640.194580,486.167145 
	C618.365479,486.095490 596.536072,486.129150 574.706726,486.131866 
	C552.210876,486.134705 529.715027,486.128143 507.219208,486.154480 
	C500.984344,486.161774 500.146057,487.240662 501.577728,493.749847 
	C505.359772,510.945160 514.214172,524.740417 529.431580,534.607056 
M612.345886,445.211975 
	C611.797974,443.998016 611.259705,442.779572 610.700562,441.570801 
	C599.103027,416.498871 571.086243,402.931702 544.277954,409.403168 
	C521.001160,415.022156 503.829254,434.070404 500.412018,457.833282 
	C499.840271,461.808990 501.447662,462.777435 505.027252,462.747253 
	C517.183289,462.644684 529.340942,462.729614 541.497925,462.731262 
	C564.479736,462.734344 587.461548,462.742432 610.443359,462.717804 
	C615.841553,462.712006 616.615356,461.818878 615.477417,456.525116 
	C614.710266,452.956299 613.580139,449.465546 612.345886,445.211975 
z"/>
    <path d="
M341.925720,426.961609 
	C358.821472,396.865723 376.233856,367.451538 391.882874,337.127350 
	C397.598022,326.052765 404.289001,322.097137 415.855103,323.779236 
	C419.936890,324.372864 424.174042,323.897980 428.340271,323.910919 
	C430.987823,323.919159 432.361908,325.147095 432.257263,327.894470 
	C432.200195,329.391937 432.264221,330.893799 432.264252,332.393677 
	C432.265228,406.889801 432.266388,481.385956 432.263306,555.882080 
	C432.263000,563.223511 432.250671,563.230652 424.705627,563.234741 
	C418.205994,563.238220 411.705170,563.146484 405.207275,563.249084 
	C402.013824,563.299438 400.666016,561.956726 400.723267,558.786804 
	C400.813538,553.788818 400.731262,548.787842 400.731873,543.788086 
	C400.738190,492.124115 400.746552,440.460144 400.754303,388.796173 
	C400.754547,387.139465 400.754333,385.482758 400.754333,382.796173 
	C397.510651,385.964264 396.333282,389.414734 394.651398,392.397339 
	C372.069611,432.443054 349.620300,472.563446 327.117462,512.653687 
	C325.613586,515.332947 325.281952,519.428162 321.701294,519.949097 
	C316.462189,520.711365 310.940979,521.134338 305.816742,519.740723 
	C301.301056,518.512634 297.686157,505.939636 300.005768,501.803589 
	C313.932373,476.971130 327.834106,452.124756 341.925720,426.961609 
z"/>
    <path d="
M266.089355,391.997681 
	C275.577911,409.054321 284.812439,425.832855 294.254028,442.494049 
	C295.874176,445.353088 295.872437,447.476227 294.134857,450.245056 
	C290.242706,456.447266 286.730804,462.887146 283.002289,469.193695 
	C282.099731,470.720306 281.609467,472.644684 278.583405,473.718445 
	C261.901550,443.974609 245.137146,414.083649 228.265976,384.002289 
	C226.487045,385.648346 227.040741,387.237762 227.040100,388.627808 
	C227.014465,444.271301 227.027512,499.914795 227.034546,555.558289 
	C227.035492,563.041443 226.895035,563.196167 219.593658,563.207397 
	C213.096359,563.217346 206.596481,563.082214 200.102707,563.229919 
	C196.442764,563.313110 194.973404,561.761353 195.031204,558.189087 
	C195.120132,552.693115 195.010468,547.194214 195.009491,541.696533 
	C194.996994,471.725159 194.987518,401.753784 194.981674,331.782410 
	C194.981033,324.046814 195.110382,323.928131 202.749969,323.928894 
	C208.747498,323.929474 214.791473,324.397278 220.729614,323.804352 
	C226.787384,323.199463 229.593246,326.021423 232.256378,330.944977 
	C243.266953,351.301208 254.655533,371.453003 266.089355,391.997681 
z"/>
    <path d="
M735.897827,612.928467 
	C753.773987,624.529785 756.215149,651.726746 740.950684,665.801575 
	C731.438782,674.572144 716.542114,674.849060 706.661499,666.492310 
	C705.442688,665.461426 704.629700,663.857910 702.192505,663.385254 
	C702.192505,672.159058 702.210266,680.752075 702.186584,689.344910 
	C702.169434,695.542908 698.196472,698.112183 692.368469,695.810181 
	C690.432983,695.045715 690.159729,693.534363 690.157471,691.782532 
	C690.125183,666.803345 690.111938,641.824036 690.029480,616.844971 
	C690.017090,613.096375 689.976868,610.022766 695.242737,609.793823 
	C700.531067,609.563843 701.542847,612.172241 701.289062,616.459595 
	C701.271729,616.752502 701.499207,617.059937 701.842712,617.969055 
	C711.918823,608.303223 723.142456,606.076477 735.897827,612.928467 
M702.179749,645.160645 
	C702.219666,653.362610 707.449402,657.808533 714.072144,660.872620 
	C720.278381,663.743835 727.467896,661.990845 732.481323,656.993408 
	C740.346924,649.153198 741.238098,636.092346 734.512756,627.224182 
	C729.927612,621.178162 721.605103,618.001282 715.608582,620.008118 
	C705.943848,623.242615 702.182556,628.208496 702.177307,637.743835 
	C702.176147,639.909241 702.180725,642.074585 702.179749,645.160645 
z"/>
    <path d="
M294.667053,661.797241 
	C294.661652,652.991150 294.755219,644.657166 294.600006,636.327942 
	C294.535736,632.878723 295.859558,631.560608 299.286957,631.605713 
	C308.450500,631.726318 317.616821,631.664124 326.781921,631.638245 
	C336.315918,631.611328 341.860046,625.729553 341.901917,615.653687 
	C341.942474,605.891785 336.147797,599.528259 326.917267,599.335083 
	C321.586945,599.223511 316.249207,599.401733 310.922028,599.227478 
	C307.533539,599.116638 306.067596,600.326416 306.204498,603.848755 
	C306.392090,608.673462 306.162079,613.512756 306.232330,618.344055 
	C306.309998,623.689697 302.460388,622.726929 299.222137,622.893066 
	C295.947510,623.060852 294.420258,621.982849 294.536438,618.304810 
	C294.794037,610.147644 294.768341,601.972778 294.553040,593.813171 
	C294.447937,589.828857 296.027527,588.555603 299.847321,588.625977 
	C309.009460,588.794922 318.178558,588.792908 327.341583,588.650085 
	C338.387390,588.477905 346.151581,593.758667 351.101898,603.168030 
	C355.996979,612.472534 355.289642,621.806091 349.670715,630.700012 
	C344.720123,638.536194 337.503693,642.253845 328.293213,642.244141 
	C322.460785,642.237976 316.623840,642.377380 310.797607,642.186340 
	C307.267639,642.070679 306.100128,643.525513 306.185822,646.912903 
	C306.345947,653.241211 305.969147,659.590576 306.308319,665.904663 
	C306.617157,671.653809 303.072083,671.166504 299.213043,671.376038 
	C294.692596,671.621399 294.298157,669.182739 294.629242,665.769043 
	C294.741394,664.612793 294.659119,663.437744 294.667053,661.797241 
z"/>
    <path d="
M632.884949,658.716064 
	C623.363525,671.614990 608.964294,675.958618 595.186035,670.338867 
	C582.345764,665.101807 574.202148,650.953613 576.160645,637.285522 
	C578.456177,621.266235 589.037781,610.351257 604.556763,609.054993 
	C615.556458,608.136169 624.968872,612.265381 631.531860,621.311584 
	C638.942322,631.525696 640.124329,642.727112 635.195496,654.440186 
	C634.617065,655.814819 633.793274,657.086243 632.884949,658.716064 
M588.419128,645.774597 
	C591.402405,656.054443 597.611084,661.721375 606.175293,661.981567 
	C613.574646,662.206360 620.626465,658.012695 623.487610,651.429138 
	C627.464355,642.278442 626.999878,633.438599 620.360779,625.689087 
	C613.059387,617.166443 600.418823,617.602112 593.266968,626.175171 
	C588.666016,631.690430 587.557007,638.037720 588.419128,645.774597 
z"/>
    <path d="
M433.568237,609.120850 
	C460.520020,611.901001 469.873566,643.203979 455.187195,661.062988 
	C446.915253,671.122009 436.214478,674.242676 423.922241,671.737122 
	C411.381927,669.180908 403.962860,660.684143 401.067535,648.613525 
	C395.935638,627.218140 411.528259,608.239563 433.568237,609.120850 
M414.931366,652.428955 
	C420.774323,660.648438 427.689972,663.666260 435.774414,661.382996 
	C443.898468,659.088562 448.189178,653.199707 449.674316,645.314819 
	C451.342865,636.456482 448.807709,628.728149 441.568207,623.097290 
	C434.959167,617.956787 427.606476,618.094543 420.745850,622.972107 
	C412.269897,628.998047 409.789032,640.563599 414.931366,652.428955 
z"/>
    <path d="
M564.770996,609.755859 
	C562.036255,611.611572 559.754761,613.394226 557.522949,609.526306 
	C549.425842,595.492981 523.205322,593.512756 513.360962,615.324341 
	C512.411987,617.427124 511.695007,619.701050 511.299744,621.970337 
	C510.814819,624.754333 509.471771,625.884888 506.646576,626.064392 
	C498.691528,626.569946 497.762085,625.525635 499.891266,617.792175 
	C506.090363,595.276062 527.518372,583.183960 549.565613,589.783325 
	C556.706604,591.920776 562.173523,596.342346 566.544617,602.285767 
	C568.779968,605.325073 568.697632,607.755005 564.770996,609.755859 
z"/>
    <path d="
M565.376465,660.339355 
	C554.014832,670.731995 541.168396,675.172852 526.565613,670.376526 
	C511.370056,665.385437 502.955292,653.843750 499.190552,638.646423 
	C498.622253,636.352478 498.594574,633.837646 501.772552,634.058960 
	C505.117981,634.291931 509.930542,631.494080 511.169373,637.473877 
	C512.831177,645.495544 516.945374,651.896423 523.548767,656.675598 
	C534.043274,664.270996 549.720154,661.971436 557.581665,651.744446 
	C561.408081,646.766663 562.517944,646.671997 567.827759,650.616455 
	C572.196167,653.861633 567.832153,655.973022 566.838806,658.503357 
	C566.607117,659.093567 566.031311,659.548767 565.376465,660.339355 
z"/>
    <path d="
M376.608551,631.643860 
	C374.504272,639.508667 376.167023,647.182983 375.612152,654.782715 
	C375.310425,658.914795 375.568268,663.096924 375.727783,667.250610 
	C375.862793,670.766052 373.843079,671.588928 370.958099,671.260437 
	C368.163025,670.942139 363.930664,672.856934 363.903381,667.557007 
	C363.810791,649.567749 363.855896,631.577820 363.825989,613.588135 
	C363.819763,609.851685 366.423187,609.849976 369.007355,609.936584 
	C371.576996,610.022705 374.689209,609.372437 375.015747,613.381348 
	C375.173981,615.323792 375.208099,617.276428 375.343689,620.200256 
	C379.802917,615.448425 383.890594,611.489441 389.644989,610.314453 
	C392.381622,609.755676 395.809326,608.043457 397.026855,612.513794 
	C398.431366,617.670349 396.903412,620.152649 391.950989,621.086792 
	C385.408447,622.320801 380.072449,625.296875 376.608551,631.643860 
z"/>
    <path d="
M665.564575,626.572876 
	C661.508789,630.572754 660.197632,635.138733 660.316528,640.424072 
	C660.514954,649.241699 660.232910,658.070435 660.449341,666.887207 
	C660.538330,670.509888 659.120300,671.724304 655.756409,671.341003 
	C652.737183,670.996948 648.704712,672.661438 648.733337,667.020325 
	C648.822998,649.376709 648.798401,631.731995 648.696472,614.088440 
	C648.674255,610.245178 650.880066,609.766541 653.868347,609.838623 
	C656.709167,609.907166 659.857422,609.398621 659.904175,613.734253 
	C659.925537,615.711731 659.907837,617.689636 659.907837,620.395569 
	C664.256714,615.818115 668.336792,611.756104 674.167480,610.221008 
	C680.711304,608.498230 682.800659,610.316223 682.188171,616.972656 
	C681.924561,619.837463 680.210266,620.570312 677.966064,620.961731 
	C673.468689,621.746155 669.229431,623.075439 665.564575,626.572876 
z"/>
  </g>
</svg>